<svg width="66" height="66" viewBox="0 0 66 66" fill="none" xmlns="http://www.w3.org/2000/svg">
<circle cx="33" cy="33" r="33" fill="#D9D9D9"/>
<rect x="23.3004" y="6" width="18.7387" height="5.03267" fill="#055D59"/>
<path d="M47.7677 33.3584C45.0265 29.1182 42.1996 17.9214 41.1288 12.853H24.4247C24.2105 18.2497 20.0523 28.7719 18 33.3584C30.9029 47.3857 30.1814 55.7683 30.9488 61.2293C32.1955 61.4511 34.8571 61.3578 34.8571 61.2293C34.1611 45.5424 47.7141 33.3584 47.7677 33.3584Z" fill="#055D59"/>
<circle cx="32.8609" cy="63.4474" r="1.55263" fill="#055D59"/>
<rect x="32.25" y="33.75" width="1.71325" height="27.6261" fill="white"/>
<path d="M35.8651 17C36.1158 17 36.4214 17.232 36.7817 17.6959C37.1578 18.1443 37.3458 18.5696 37.3458 18.9716C37.3458 19.3737 37.15 20.518 36.7582 22.4046C36.3665 24.2758 35.9121 26.2165 35.395 28.2268C34.2669 32.7423 33.5226 35 33.1622 35C32.9428 35 32.6999 34.8686 32.4336 34.6057C32.1829 34.3273 32.0575 34.0876 32.0575 33.8866C32.0575 33.6856 32.1124 33.2835 32.222 32.6804C30.6865 34.2268 29.3468 35 28.2029 35C27.5135 35 26.8867 34.6907 26.3226 34.0722C25.7742 33.4536 25.5 32.8119 25.5 32.1469C25.5 31.1881 25.7585 30.0515 26.2756 28.7371C26.8084 27.4072 27.5683 26.201 28.5555 25.1186C29.5426 24.0361 30.5925 23.4948 31.705 23.4948C32.8175 23.4948 33.5931 24.1521 34.0318 25.4665C34.8309 22.1881 35.2697 19.5979 35.348 17.6959C35.348 17.232 35.5204 17 35.8651 17ZM33.2797 28.3892C33.2797 27.5541 33.1308 26.8505 32.8331 26.2784C32.5511 25.7062 32.2064 25.4201 31.799 25.4201C31.1252 25.4201 30.4358 25.8299 29.7307 26.6495C29.0255 27.4691 28.4615 28.4124 28.0384 29.4794C27.631 30.5309 27.4273 31.4433 27.4273 32.2165C27.4273 32.4948 27.5291 32.7191 27.7328 32.8892C27.9365 33.0593 28.1794 33.1443 28.4615 33.1443C29.0726 33.1443 29.8952 32.7113 30.9293 31.8454C31.9792 30.9794 32.7391 29.9588 33.2092 28.7835L33.2797 28.5052V28.3892Z" fill="white"/>
<path d="M42.5 24.7474C42.5 24.8866 41.8027 25.6134 40.4082 26.9278C39.8911 27.4227 39.4132 28.0103 38.9745 28.6907C38.5514 29.3557 38.3399 29.9665 38.3399 30.5232C38.3399 31.0799 38.5044 31.5979 38.8334 32.0773C39.1782 32.5412 39.5464 32.8969 39.9381 33.1443C40.3455 33.3763 40.7137 33.6082 41.0428 33.8402C41.3875 34.0722 41.5599 34.2655 41.5599 34.4201C41.5599 34.8067 41.2465 35 40.6197 35C40.0086 35 39.2722 34.6598 38.4104 33.9794C37.5642 33.2835 37.0393 32.5103 36.8356 31.6598C36.7573 31.5052 36.6946 31.3582 36.6476 31.2191C35.5821 32.6418 34.8065 33.6314 34.3207 34.1881C33.8507 34.7294 33.4981 35 33.2631 35C33.028 35 32.7695 34.8222 32.4875 34.4665C32.2054 34.0954 32.0644 33.7938 32.0644 33.5619C32.0644 33.3144 32.3151 32.317 32.8165 30.5696C33.3336 28.8067 33.8428 26.6959 34.3442 24.2371C34.8613 21.7784 35.1199 19.5825 35.1199 17.6495C35.1199 17.4021 35.1512 17.232 35.2139 17.1392C35.2922 17.0464 35.4489 17 35.6839 17C35.919 17 36.2089 17.232 36.5536 17.6959C36.8983 18.1443 37.0707 18.5851 37.0707 19.018C37.0707 20.3943 36.7886 22.3196 36.2245 24.7938C35.6604 27.268 34.9867 29.6186 34.2032 31.8454C35.9738 29.3557 37.5016 27.3454 38.7864 25.8144C40.087 24.268 40.8861 23.4948 41.1838 23.4948C41.4972 23.4948 41.7949 23.6418 42.0769 23.9356C42.359 24.2294 42.5 24.5 42.5 24.7474Z" fill="white"/>
</svg>
